<?xml version="1.0" standalone="no"?>
<!DOCTYPE svg PUBLIC "-//W3C//DTD SVG 20010904//EN"
 "http://www.w3.org/TR/2001/REC-SVG-20010904/DTD/svg10.dtd">
<svg version="1.0" xmlns="http://www.w3.org/2000/svg"
 width="2000.000000pt" height="2000.000000pt" viewBox="0 0 2000.000000 2000.000000"
 preserveAspectRatio="xMidYMid meet">
<metadata>
Created by potrace 1.14, written by Peter Selinger 2001-2017
</metadata>
<g transform="translate(0.000000,2000.000000) scale(0.100000,-0.100000)"
fill="#000000" stroke="none">
<path d="M14185 18719 c-590 -45 -1188 -255 -1690 -592 -271 -181 -294 -204
-1678 -1586 l-1318 -1316 223 -223 223 -222 1305 1304 c808 806 1341 1331
1400 1378 197 155 423 293 627 382 60 26 117 52 128 57 103 47 375 122 560
154 484 84 963 50 1430 -101 61 -20 124 -42 140 -49 17 -7 68 -30 115 -50 89
-38 295 -144 339 -175 14 -9 69 -46 121 -80 466 -309 869 -806 1072 -1320 106
-271 149 -431 189 -710 30 -205 32 -549 5 -750 -26 -200 -95 -505 -126 -562
-6 -10 -10 -22 -10 -28 0 -18 -70 -190 -121 -298 -97 -207 -220 -402 -376
-597 -59 -73 -510 -531 -1377 -1398 l-1289 -1289 219 -221 c121 -122 220 -223
222 -226 5 -8 2431 2420 2564 2567 521 569 814 1200 919 1977 31 230 31 640 0
869 -51 378 -137 688 -283 1016 -39 87 -150 305 -164 321 -8 8 -14 18 -14 22
0 23 -184 290 -303 440 -109 138 -395 422 -542 539 -566 449 -1234 713 -1945
768 -143 11 -418 11 -565 -1z"/>
<path d="M16035 18682 c297 -130 562 -293 875 -541 113 -90 365 -334 459 -445
43 -51 106 -108 181 -164 350 -259 615 -552 818 -903 318 -552 443 -1165 367
-1804 -65 -547 -282 -1051 -643 -1495 -52 -64 -724 -743 -1712 -1732 l-1627
-1627 231 -230 231 -231 1628 1628 c895 895 1668 1674 1717 1732 256 301 451
621 595 980 61 152 65 165 119 350 227 777 168 1665 -159 2405 -445 1004
-1320 1747 -2373 2015 -245 63 -578 110 -766 110 l-51 0 110 -48z"/>
<path d="M6124 17969 c-76 -24 -154 -90 -192 -163 -23 -44 -27 -63 -27 -141 0
-142 18 -170 245 -395 103 -102 234 -237 291 -300 57 -63 2369 -2381 5139
-5150 2769 -2769 5075 -5082 5123 -5140 333 -398 566 -916 641 -1425 28 -190
35 -536 15 -740 -109 -1111 -885 -2080 -1954 -2440 -241 -81 -389 -113 -659
-140 -240 -24 -456 -18 -721 21 -530 77 -1070 333 -1477 699 -51 46 -1345
1336 -2874 2867 -3043 3044 -2832 2824 -2943 3059 -122 255 -165 448 -165 739
0 344 75 615 246 895 20 31 585 604 1497 1518 806 807 1468 1470 1471 1473 2
3 -99 108 -225 234 l-230 230 -1310 -1307 c-720 -720 -1364 -1362 -1431 -1428
-241 -240 -429 -545 -537 -875 -84 -254 -107 -391 -114 -661 -7 -287 12 -466
76 -699 19 -68 32 -104 100 -283 93 -239 260 -486 524 -768 69 -74 1335 -1343
2814 -2820 2838 -2836 2767 -2767 3048 -2956 1197 -804 2759 -805 3960 -1 341
229 685 564 922 900 66 93 163 245 163 255 0 4 6 14 14 22 14 16 125 234 164
321 146 328 232 638 283 1016 31 229 31 639 0 869 -58 430 -162 775 -341 1140
-159 322 -346 589 -617 880 -234 250 -10525 10529 -10622 10610 -52 43 -110
84 -128 91 -44 19 -96 17 -169 -7z"/>
<path d="M14253 17809 c-228 -16 -508 -75 -658 -140 -11 -4 -60 -24 -110 -43
-92 -35 -283 -130 -365 -180 -25 -16 -694 -677 -1487 -1469 l-1443 -1442 228
-230 227 -230 1630 1626 c988 986 1671 1659 1735 1711 151 123 340 249 490
327 l131 68 -38 6 c-48 8 -182 7 -340 -4z"/>
<path d="M5049 10772 c-1972 -1973 -3610 -3616 -3640 -3652 -347 -409 -598
-897 -733 -1420 -190 -741 -131 -1547 165 -2250 450 -1070 1384 -1848 2519
-2099 552 -122 1175 -104 1705 48 39 11 93 26 120 34 222 63 567 221 796 364
365 229 391 253 1832 1692 l1287 1286 -224 224 -224 223 -1273 -1272 c-701
-700 -1317 -1310 -1369 -1355 -521 -448 -1193 -694 -1895 -695 -600 0 -1180
182 -1670 525 -397 278 -726 659 -942 1092 -67 133 -140 312 -173 423 -12 41
-28 95 -35 120 -26 84 -66 305 -81 445 -23 219 -18 532 11 740 71 489 270 957
584 1370 68 89 766 792 3678 3705 l3593 3595 -223 223 -222 222 -3586 -3588z"/>
<path d="M4289 8633 c-1610 -1612 -1599 -1601 -1807 -1935 -292 -469 -476
-1024 -521 -1571 -14 -161 -14 -456 -1 -607 54 -631 281 -1248 646 -1760 141
-198 154 -210 343 -304 249 -123 466 -196 701 -236 148 -25 482 -46 565 -35
l58 7 -104 55 c-286 152 -484 297 -714 528 -294 294 -497 599 -645 969 -362
906 -243 1946 314 2736 142 202 258 323 1378 1445 l1148 1150 4 275 c3 178 9
301 19 350 18 99 65 299 82 355 7 25 10 45 6 45 -3 0 -666 -660 -1472 -1467z"/>
<path d="M11366 7937 c-1015 -1015 -1846 -1850 -1846 -1854 0 -5 99 -107 220
-228 l220 -220 1850 1850 1850 1850 -224 224 -224 224 -1846 -1846z"/>
<path d="M12031 7254 l-1845 -1845 232 -232 232 -232 1850 1850 1851 1851
-226 224 c-124 124 -231 226 -238 227 -6 1 -842 -829 -1856 -1843z"/>
<path d="M8366 3591 c-882 -880 -1002 -997 -1126 -1091 -25 -19 -144 -131
-265 -250 -305 -298 -436 -413 -630 -550 -52 -36 -95 -65 -265 -175 -86 -56
-408 -216 -500 -248 -26 -9 81 -7 216 3 350 28 710 113 1036 246 233 94 501
238 691 371 234 163 312 237 1290 1212 532 531 967 970 967 976 0 12 -441 455
-454 455 -4 0 -436 -427 -960 -949z"/>
</g>
</svg>
